# xmcd
#
# Track frame offsets: 
#        150
#        30977
#        51657
#        80260
#        95515
#        122067
#        137140
#        159227
#        175355
#        198840
#        225810
#        241982
#        257352
#
# Disc length: 3717 seconds
#
# Revision: 9
# Processed by: cddbd v1.5.2PL0 Copyright (c) Steve Scherf et al.
# Submitted via: ExactAudioCopy v0.95b2
#
DISCID=9a0e830d
DTITLE=Miriam Stockley - Miriam
DYEAR=1999
DGENRE=New Age
TTITLE0=Forever My Heart
TTITLE1=Arcadia
TTITLE2=Mercy Street
TTITLE3=Empty Space
TTITLE4=Ruwenzori
TTITLE5=Perfect Day
TTITLE6=Domini
TTITLE7=Innocents
TTITLE8=Morte D'Arthur
TTITLE9=Song Of The Seahorse
TTITLE10=Nocturne
TTITLE11=Uku'Lela
TTITLE12=Homeland
EXTD=
EXTT0=
EXTT1=
EXTT2=
EXTT3=
EXTT4=
EXTT5=
EXTT6=
EXTT7=
EXTT8=
EXTT9=
EXTT10=
EXTT11=
EXTT12=
PLAYORDER=
